<svg id="Ebene_1" data-name="Ebene 1" xmlns="http://www.w3.org/2000/svg" xmlns:xlink="http://www.w3.org/1999/xlink" viewBox="0 0 2582.64 606.66"><defs><style>.cls-1{fill:none;}.cls-2{clip-path:url(#clip-path);}.cls-3{fill:#3fa535;}.cls-4{fill:#e6007e;}.cls-5{fill:#009fe3;}.cls-6{fill:#1d1d1b;}</style><clipPath id="clip-path" transform="translate(-126 -232.36)"><rect class="cls-1" x="126.01" y="236.54" width="2582.64" height="602.47"/></clipPath></defs><title>Logo</title><g class="cls-2"><path class="cls-3" d="M958.05,408.84l-11-26.33c68.72-29.3,120.12-54.66,161.42-75,120.55-59.49,165.66-81.75,329-48.39l-5.59,28c-154-31.45-190.39-13.48-311,46.05C1079.27,353.68,1027.48,379.23,958.05,408.84Z" transform="translate(-126 -232.36)"/><path class="cls-3" d="M1418.63,236.56a40.2,40.2,0,0,0-20,52.81,39.37,39.37,0,0,0,52.21,20.27,40.18,40.18,0,0,0,20-52.81,39.37,39.37,0,0,0-52.21-20.27" transform="translate(-126 -232.36)"/><path class="cls-4" d="M1652.56,492.29c-71.84,0-149.82-14-255.52-33C1323,446,1239,431,1132.77,415.88l3.93-28.29c106.75,15.17,194.64,30.94,265.27,43.61,236.37,42.41,324.81,58.27,516.49-45.61l13.34,25.18C1821,470.82,1741.5,492.29,1652.56,492.29Z" transform="translate(-126 -232.36)"/><path class="cls-4" d="M1919.29,437.74a40,40,0,1,1,45-33.65,39.94,39.94,0,0,1-45,33.65" transform="translate(-126 -232.36)"/><path class="cls-5" d="M1275.54,419.24c-38.34,0-81.59-1.65-132.54-3.61-68.4-2.62-153.51-5.88-259.43-6.19l.09-28.57c106.41.31,191.8,3.58,260.4,6.21,233.56,8.95,296.33,11.36,470-120.3L1631,289.64C1488.66,397.55,1414.25,419.24,1275.54,419.24Z" transform="translate(-126 -232.36)"/><path class="cls-5" d="M1622.52,318.21a40,40,0,1,1,39.54-40,39.77,39.77,0,0,1-39.54,40" transform="translate(-126 -232.36)"/><path class="cls-5" d="M883.61,435.16c-21.83,0-39.53-17.91-39.53-40s17.7-40,39.53-40a40,40,0,0,1,0,80" transform="translate(-126 -232.36)"/><path class="cls-6" d="M2561.61,766.92q0,29.1,4.36,39.92t15.18,18a61,61,0,0,0,19.66,9.08,97.62,97.62,0,0,0,25.21,2.94,189.29,189.29,0,0,0,38.41-4.38,318.48,318.48,0,0,0,44.21-12.86v-26a132.61,132.61,0,0,1-16.5,2.8,170.56,170.56,0,0,1-18.61.94q-25.34,0-35.1-11.23t-9.77-42V607.77h80V574.93h-80V507.11h-34L2566.36,564l-39.86,23v20.82h35.11Zm-198.79,67.29V809.64l-23.76-2.13-7.39-8.28V618.72q15.84-4.53,28.64-6.94a123.4,123.4,0,0,1,22.57-2.4q25.34,0,36.95,14.28t11.62,44.73V799.23l-7.39,8.28-23.23,2.13v24.57h132.24V809.64l-28.5-2.13-7.13-8.28V652.63q0-45.92-18.22-68.35t-55.16-22.43q-16.64,0-39.07,8t-53.32,25.36V562.91h-26.13l-77.87,25.64v21.89h37V799.23l-7.66,8.28-27.72,2.13v24.57Zm-201-45.13a136.09,136.09,0,0,1-43.62,7.48q-40.71,0-64-26.7T2031,696.43v-1.61h177.12V684.41q0-58.74-29.6-91.19t-83-32.44q-58.93,0-96.32,39.38t-37.39,101.6q0,62,36.6,99.6T2095.54,839a206.64,206.64,0,0,0,56.55-8,245.86,245.86,0,0,0,56-24V766.38q-24.06,15.23-46.26,22.7M2033.63,665.72q1.32-35,16.37-54.88T2089.85,591q22.7,0,34.84,17.76t12.15,51.13v5.88ZM1724,571.19q-15.84-9.35-36.69-9.34-16.63,0-38,8t-50.42,25.36V562.91h-26.13l-76.29,25.64v21.89h35.38V799.23l-7.66,8.28-27.72,2.13v24.57H1629V809.64l-22.7-2.13-7.4-8.28V618.72a164.88,164.88,0,0,1,23.5-6.94,105,105,0,0,1,21.9-2.4q25.35,0,37,13.35t11.62,42.45v133l-7.66,9.35L1663,809.64v24.57h127.76V809.64l-24.55-2.13-6.87-8.28V619.79a189.49,189.49,0,0,1,25.21-7.88,94.49,94.49,0,0,1,20.72-2.53q26.15,0,37.88,13.88t11.75,45.13V799.23l-7.39,8.28-23.23,2.13v24.57h132.77V809.64l-28.51-2.13-7.13-8.28V652.63q0-45.39-18.74-68.09t-56.22-22.69q-15.59,0-40,9.47T1750.66,599q-10.82-18.42-26.66-27.77M1429.06,789.08a136.09,136.09,0,0,1-43.62,7.48q-40.71,0-64-26.7t-23.26-73.43v-1.61h177.12V684.41q0-58.74-29.6-91.19t-83-32.44q-58.92,0-96.32,39.38T1229,701.76q0,62,36.6,99.6T1362.75,839a206.64,206.64,0,0,0,56.55-8,245.86,245.86,0,0,0,56-24V766.38q-24.06,15.23-46.26,22.7M1300.84,665.72q1.32-35,16.37-54.88T1357.07,591q22.7,0,34.84,17.76t12.14,51.13v5.88ZM1053.32,834.21V809.64l-23.76-2.13-7.39-8.28V618.72q15.84-4.53,28.64-6.94a123.48,123.48,0,0,1,22.57-2.4q25.33,0,37,14.28T1122,668.39V799.23l-7.39,8.28-23.23,2.13v24.57h132.25V809.64l-28.51-2.13-7.13-8.28V652.63q0-45.92-18.21-68.35t-55.17-22.43q-16.63,0-39.07,8t-53.32,25.36V562.91H996l-77.87,25.64v21.89h37V799.23l-7.65,8.28-27.71,2.13v24.57Zm-201-45.13a136.09,136.09,0,0,1-43.62,7.48q-40.71,0-64-26.7t-23.27-73.43v-1.61H898.61V684.41q0-58.74-29.59-91.19t-83-32.44q-58.95,0-96.33,39.38t-37.38,101.6q0,62,36.59,99.6T786.05,839a206.63,206.63,0,0,0,56.54-8,245.86,245.86,0,0,0,56-24V766.38q-24.06,15.23-46.26,22.7M724.13,665.72q1.32-35,16.37-54.88T780.36,591q22.7,0,34.84,17.76t12.14,51.13v5.88ZM371,593.09l32.47,3.2,86.31,237.92H538.6l92.91-237.38,31.41-3.74V568H560.24v25.11l27.45,2.67,4.23,7.74L530.41,762.65,474.19,603l5.81-7.21,28.24-2.67V568H371Zm-45,196a136.09,136.09,0,0,1-43.62,7.48q-40.71,0-64-26.7t-23.26-73.43v-1.61H372.28V684.41q0-58.74-29.6-91.19t-83-32.44q-58.92,0-96.32,39.38T126,701.76q0,62,36.6,99.6T259.71,839a206.64,206.64,0,0,0,56.55-8,245.86,245.86,0,0,0,56-24V766.38q-24.06,15.23-46.26,22.7M197.8,665.72q1.32-35,16.37-54.88T254,591q22.7,0,34.84,17.76T301,659.84v5.88Z" transform="translate(-126 -232.36)"/></g><circle class="cls-3" cx="1309.1" cy="40.47" r="40.47"/></svg>